PathFileType	4	(X/Y/Z)	D:\TRACE\v60_Jaco2_6-2-23\JustBodyDRS_Motion3_4-v60.trc
DataRate	CameraRate	NumFrames	NumMarkers	Units	OrigDataRate	OrigDataStartFrame	OrigNumFrames
100.00	100.00	      42	9	mm	100.00	3501	      7000
Frame#	Time	front left toe			Front right toe			aft left toe			aft right toe			Arm			FL body			FR body			AL Body			AR Body			
		X1	Y1	Z1	X2	Y2	Z2	X3	Y3	Z3	X4	Y4	Z4	X5	Y5	Z5	X6	Y6	Z6	X7	Y7	Z7	X8	Y8	Z8	X9	Y9	Z9	

3501	35.000	-193.12978	14.82925	-124.56875	142.22798	62.09025	-143.01669	-232.64949	61.71458	473.60464	168.67697	14.12544	503.63202	11.23233	1211.20227	-125.68971	-82.49038	585.01062	-266.76727	75.72491	581.51154	-262.01749	-103.08398	540.58167	676.78632	45.52805	528.34625	680.01489	
3502	35.010	-193.03183	14.77209	-124.72488	146.36446	74.34029	-143.26328	-232.48000	73.19223	474.40613	168.79103	14.14908	503.54385	12.65871	1210.48987	-126.28789	-81.92318	584.74030	-266.36496	76.51765	581.17828	-262.19992	-101.24041	540.25891	676.87799	47.38717	528.13373	680.02472	
3503	35.020	-193.06630	14.67548	-124.72064	150.74573	86.08500	-142.11897	-231.56140	84.94962	475.63797	168.86711	14.22125	503.29291	13.17062	1209.87378	-126.89272	-81.52036	584.30151	-266.06436	76.94167	580.76544	-262.00287	-100.05376	540.21082	677.31927	48.40102	527.97675	680.33160	
3504	35.030	-193.15358	14.59515	-124.73988	154.60738	97.86089	-140.64383	-229.44669	96.25538	477.34238	168.88237	14.55285	503.30609	13.86498	1209.30432	-127.26257	-80.87276	583.83160	-265.52179	77.50967	579.64868	-261.23221	-98.47894	540.64612	677.86676	50.15100	528.06097	680.69043	
3505	35.040	-193.13889	14.40968	-124.77089	157.85704	108.60274	-138.75447	-226.57288	107.07412	479.33676	169.17905	14.75633	503.32614	14.98683	1208.75366	-127.32997	-80.38290	583.04382	-265.27676	77.92603	578.97607	-261.24347	-97.23870	541.01929	678.18530	51.49498	528.37500	681.02490	
3506	35.050	-193.07027	14.19718	-124.75128	160.48270	118.22712	-137.09979	-223.10507	116.71658	481.48770	169.43517	15.01715	503.20193	15.58341	1208.45972	-127.56094	-80.00750	582.30048	-265.16544	78.53608	578.08868	-260.76266	-95.75425	541.63177	678.89569	52.50906	528.66370	681.26660	
3507	35.060	-193.00847	13.92316	-124.81992	161.97781	126.77530	-135.75410	-220.43953	126.58209	482.62839	169.62029	15.27634	503.13000	16.82889	1207.70972	-128.13470	-79.49083	581.54266	-264.47806	78.51161	577.40063	-260.81445	-94.65969	542.22687	679.14459	53.97959	529.28571	681.64630	
3508	35.070	-193.06296	13.80210	-124.80579	165.56415	134.25464	-133.95483	-216.85622	134.06206	484.37378	169.82732	15.53847	503.06815	18.30431	1206.99829	-128.71263	-79.16138	581.04590	-264.02695	79.19294	576.59106	-260.86841	-93.24041	542.89868	679.55792	55.19704	529.70258	681.73669	
3509	35.080	-193.01828	13.60590	-124.66656	168.44771	140.06554	-133.01657	-214.41617	140.40903	485.56985	169.86011	15.62805	503.02579	19.44343	1206.65271	-129.45045	-79.02648	580.66235	-263.63736	78.92741	576.12500	-260.38739	-91.70359	543.47949	680.26465	56.95123	530.33728	681.99841	
3510	35.090	-192.90381	13.69435	-124.75046	171.85992	143.32312	-131.79088	-212.24295	145.00600	486.84668	170.00369	15.76910	502.84790	20.12605	1206.45313	-130.02057	-79.00806	580.39832	-263.53333	79.11391	575.94171	-260.12955	-90.27898	544.22675	680.49841	58.26072	530.88318	682.35394	
3511	35.100	-192.78716	13.63989	-124.71085	174.84158	144.18347	-130.32663	-210.49236	146.41850	488.63806	170.03627	15.89926	502.72269	20.71266	1206.30481	-130.32722	-78.76226	580.07306	-263.15930	79.22993	575.77740	-259.97983	-88.61024	544.71576	681.03693	59.89175	531.53802	682.60828	
3512	35.110	-192.71516	13.62601	-124.77438	177.93672	142.34634	-128.43155	-208.26082	144.81499	490.37466	170.08104	16.03319	502.58517	20.87921	1206.28162	-130.57951	-78.55378	579.86426	-262.62878	79.34771	575.57690	-259.75436	-87.34476	545.55676	681.17792	60.94639	532.02509	682.64471	
3513	35.120	-192.59465	13.54612	-124.87714	179.21255	137.77237	-127.72320	-205.53723	141.41562	492.27859	170.20866	16.13560	502.45084	20.97651	1206.36646	-130.85431	-78.51064	579.69812	-262.46170	79.64581	575.18756	-259.84106	-86.02262	546.01135	681.32745	62.56078	532.72479	682.56757	
3514	35.130	-192.49873	13.46530	-124.86116	182.01453	133.25104	-126.13783	-202.27350	137.17705	494.27499	170.35187	16.37660	502.21591	20.97805	1206.44690	-131.18167	-78.39086	579.49725	-262.04169	79.68362	575.09918	-259.86429	-84.69823	546.80438	681.81079	63.63930	533.14917	682.61273	
3515	35.140	-192.45551	13.24217	-124.74370	183.75690	127.67210	-125.25608	-197.99451	131.32086	496.73914	170.41032	16.63760	502.11111	21.21092	1206.40759	-131.57114	-78.24454	579.38519	-261.79407	79.79573	574.95776	-259.87265	-83.41315	547.09045	682.03687	64.91296	533.69330	682.72083	
3516	35.150	-192.37180	13.15954	-124.86456	185.24054	121.02782	-124.96169	-194.81404	125.41179	498.21820	170.55151	16.91566	501.94806	21.75797	1206.31641	-132.00735	-78.26538	579.38708	-261.72086	80.29266	574.91931	-260.22314	-82.24354	547.56073	682.06158	66.54920	533.99542	682.61450	
3517	35.160	-192.36072	13.08769	-124.96996	187.51605	114.20460	-124.57717	-191.36171	117.94610	499.35553	170.41420	17.32640	501.69614	22.13109	1206.32874	-132.38469	-78.36237	579.27673	-261.65732	80.01245	574.78577	-260.50183	-80.85113	547.71100	682.28711	67.63915	534.51837	682.51556	
3518	35.170	-192.38258	12.99395	-125.00883	189.55983	107.23624	-125.29401	-188.42503	109.42130	500.57867	170.58179	17.65778	501.58707	22.09574	1206.29700	-132.87126	-78.51328	579.07617	-261.70853	79.88335	574.58728	-260.75656	-79.57148	548.42078	682.18378	70.04061	535.18768	682.44238	
3519	35.180	-192.34897	12.83371	-124.99682	192.08513	99.28655	-125.20347	-185.89954	100.03293	502.21210	170.81802	17.87222	501.47650	21.85358	1206.25891	-133.22307	-78.82030	578.83698	-261.79691	79.63131	574.40546	-261.00458	-78.22729	548.80200	682.34406	71.00568	535.62372	682.33337	
3520	35.190	-192.24438	12.70367	-125.04905	194.31500	90.99343	-125.38139	-182.34914	89.81815	502.70300	171.24681	18.15498	501.28903	21.25010	1206.11401	-133.80168	-78.82643	578.52075	-261.79544	79.48088	574.27380	-261.26669	-76.70314	549.19330	682.35730	71.51550	535.90656	682.02972	
3521	35.200	-192.07713	12.56291	-125.01416	196.33595	82.23612	-125.31808	-179.17462	80.37218	504.12012	171.31096	18.21821	501.19791	20.55425	1205.92847	-134.56404	-78.84501	578.40540	-261.81177	79.50166	574.16174	-261.64987	-75.43045	549.29669	682.19940	72.26985	536.18671	681.85205	
3522	35.210	-192.00168	12.46151	-125.08493	197.82420	73.34917	-125.36848	-175.84135	71.28997	503.98553	171.47873	18.32081	500.98059	20.29708	1205.63989	-135.17621	-78.94214	578.28595	-261.87277	79.59298	574.06390	-261.84674	-74.59316	549.29498	682.35870	79.81173	535.74146	680.97076	
3523	35.220	-191.97049	12.35631	-125.04235	198.91167	64.49941	-126.00983	-173.56448	61.95306	503.90958	171.60107	18.46900	500.91544	19.49418	1205.60327	-135.73724	-79.02425	577.72394	-262.04156	79.48457	573.98584	-262.21484	-73.22855	549.76764	682.02167	80.54103	536.01801	680.72467	
3524	35.230	-191.92567	12.18210	-125.03970	200.19150	56.09789	-126.82923	-171.31296	52.52479	503.14453	171.73660	18.59936	500.87924	18.97615	1205.49438	-136.21274	-79.10489	577.49249	-262.32837	79.41289	573.96021	-262.61990	-71.92977	549.79846	681.57697	81.93797	536.58197	680.08124	
3525	35.240	-191.86867	12.08636	-125.05274	200.93697	47.82928	-128.02708	-170.13664	44.24069	502.34000	172.04790	18.79876	500.81024	17.90988	1205.49902	-136.71596	-79.23305	577.30328	-262.71497	79.34219	573.93134	-263.19901	-71.08346	549.84216	681.57373	78.58028	537.80688	680.19940	
3526	35.250	-191.82013	12.00248	-125.07315	201.50970	40.30466	-129.00342	-168.97116	36.14646	500.85242	172.20029	19.07063	500.59662	17.06971	1205.56982	-137.18202	-79.35417	577.26233	-263.17438	78.79029	574.05304	-263.51572	-69.98197	549.64392	681.44275	79.02392	538.00201	679.95624	
3527	35.260	-191.59230	11.82096	-125.08788	201.73448	33.71661	-130.69818	-168.15221	28.73501	499.17178	172.41005	19.37403	500.32465	15.78957	1205.69629	-137.76143	-79.30678	577.33838	-263.54886	79.01869	574.21161	-263.92761	-68.73198	549.52289	680.73309	80.46882	538.13702	679.25977	
3528	35.270	-191.31897	11.71571	-125.17542	202.15756	27.61420	-132.40242	-167.97118	24.76241	496.61417	172.45747	19.63773	500.11966	14.40035	1205.84863	-138.21623	-79.24655	577.40881	-263.93689	79.54996	574.51208	-264.84753	-67.42293	549.49091	680.31445	81.01816	538.21002	678.55634	
3529	35.280	-191.06497	11.50042	-125.24621	202.88300	21.57298	-134.47740	-168.40698	23.17200	496.82608	172.46890	19.80938	499.99768	13.29261	1206.10291	-138.42458	-79.29916	577.10516	-264.41776	79.04311	574.74799	-265.39764	-66.66245	550.02063	679.77637	81.98785	538.68536	677.92346	
3530	35.290	-191.09723	11.39688	-125.15913	202.78879	17.40328	-136.80017	-168.86005	25.01071	496.74762	172.38672	20.30505	500.08069	12.40884	1206.26819	-139.17383	-79.42233	576.90228	-264.92319	78.82230	574.51898	-265.83774	-65.30569	551.42487	679.18268	82.99862	540.27350	677.44910	
3531	35.300	-190.96442	11.22544	-125.07665	203.59663	14.77086	-136.58156	-167.84897	25.51013	497.31357	172.29900	20.64576	499.92642	12.05766	1206.64758	-140.66376	-79.92208	576.65900	-265.73471	78.82052	574.49799	-266.63470	-64.53092	552.76770	678.71735	84.33336	541.69598	676.59369	
3532	35.310	-190.66084	11.24017	-125.22465	204.32547	13.74249	-137.83424	-167.81871	26.05591	497.10474	172.40974	20.98012	499.28708	12.01810	1206.90479	-143.13141	-80.12171	577.20978	-265.73233	78.33175	575.73871	-267.03708	-63.93564	553.32275	678.45203	85.05650	542.87000	676.16681	
3533	35.320	-188.81633	13.93550	-125.76622	204.19655	13.72024	-137.52307	-167.48048	24.98616	496.84525	172.39122	23.74300	499.56616	11.87016	1207.31482	-145.25072	-80.56527	578.30115	-265.88736	77.99609	577.31140	-267.70059	-62.66824	553.89935	678.13971	86.22311	543.37268	675.72046	
3534	35.330	-184.50117	18.28587	-123.71942	203.84871	14.15654	-137.60860	-167.94568	25.30023	496.74533	170.60542	26.43443	501.37735	10.54788	1208.38123	-145.94868	-80.75762	580.00720	-266.16299	78.03683	578.71118	-268.51520	-62.02279	554.69031	677.66687	87.18326	544.19592	674.96954	
3535	35.340	-181.06682	22.95687	-120.68986	203.61255	14.20585	-138.20633	-167.65118	25.48617	496.67834	167.57126	32.31941	502.40640	8.91102	1210.11426	-145.24973	-81.04371	580.87659	-267.03152	77.65259	579.24963	-268.71359	-61.56078	555.33807	677.22455	87.47439	544.68457	674.33026	
3536	35.350	-180.55363	32.06824	-120.97984	203.96297	13.87582	-138.02611	-167.32539	25.67265	496.59171	164.92871	41.66970	501.96494	6.80897	1211.28101	-144.23000	-81.10952	580.88525	-267.50836	77.98370	579.72278	-269.56915	-60.93178	555.86743	676.67169	88.28522	546.02246	673.96539	
3537	35.360	-180.63417	42.05742	-122.25126	204.09348	13.59847	-138.03716	-167.41757	25.75834	496.54999	164.08646	53.48397	500.54190	5.23076	1211.90527	-143.68318	-80.76746	580.37445	-267.67856	78.00120	579.84009	-269.99484	-60.69695	556.33838	676.50397	88.26830	546.49628	673.80518	
3538	35.370	-182.71205	54.30790	-123.89082	204.18964	13.48494	-137.95566	-167.70500	25.81210	496.47702	165.87354	64.71582	499.49301	4.21328	1211.24841	-144.38606	-80.45229	580.16254	-267.81256	77.57759	579.82318	-269.62692	-60.58948	556.62195	676.33215	88.41438	546.63635	673.59418	
3539	35.380	-183.27824	66.54893	-125.47317	203.96236	13.44438	-137.89192	-167.73727	25.92776	496.50275	169.17204	76.75563	498.40872	4.30450	1210.66602	-145.62193	-80.34032	580.25043	-268.13345	77.89777	579.55389	-269.95816	-61.04716	556.35992	676.13318	88.03754	546.45569	673.51135	
3540	35.390	-184.07596	78.58319	-126.39081	204.09406	13.23817	-137.94972	-167.80780	25.80975	496.36530	173.26189	88.92678	496.96906	4.73087	1210.17224	-146.74278	-79.90189	579.77148	-267.99725	78.46822	579.27295	-269.87833	-61.59195	556.00781	675.99518	87.71504	546.36389	673.51819	
3541	35.400	-184.95445	90.26106	-126.85603	204.17023	13.13185	-137.91347	-167.90556	25.62170	496.35947	175.85966	100.45455	496.29889	5.58815	1209.62012	-147.22119	-79.73051	578.83258	-268.16824	78.67323	578.94580	-269.81494	-62.08438	555.97327	676.01794	87.21243	546.64697	673.52704	
3542	35.410	-185.09306	100.87301	-127.14619	204.16122	13.05121	-137.86116	-168.00079	25.68003	496.40204	177.17787	111.85173	495.59509	6.24958	1209.04871	-147.45677	-79.69616	578.05316	-268.41113	79.15172	577.99585	-269.44995	-62.50972	556.13635	675.77490	86.62949	547.10236	673.51068	
